<svg xmlns="http://www.w3.org/2000/svg" viewBox="0 0 120 140" role="img" aria-label="kaṅgūla hasta">
  <mask id="crease-kangula" maskUnits="userSpaceOnUse" x="0" y="0" width="120" height="140">
    <rect width="120" height="140" fill="#fff"/>
    <g stroke="#000" stroke-width="3.4" fill="none" stroke-linecap="round">
      <path d="M 51.9 80.9 L 46.8 47.6"/>
      <path d="M 69.2 81.4 Q 69.9 76.5 66.3 87.9"/>
    </g>
  </mask>
  <g mask="url(#crease-kangula)" fill="currentColor" stroke="currentColor" stroke-linecap="round" stroke-linejoin="round">
    <path d="M 33 86 Q 33 72 47 71 L 76 71 Q 88 72 88 85 L 89 107 Q 90 123 74 128 Q 55 132 42 124 Q 33 117 33 104 Z" stroke="none"/>
    <path d="M 26.1 103.0 Q 66.4 107.2 74.0 108.0" stroke-width="15.0"/>
    <path d="M 79.1 89.2 Q 93.3 55.7 95.9 49.6" stroke-width="13.0"/>
    <path d="M 70.5 84.9 Q 72.8 69.6 73.0 68.2" stroke-width="13.0"/>
    <path d="M 58.7 84.0 Q 55.2 36.5 54.6 27.1" stroke-width="13.0"/>
    <path d="M 46.3 85.7 Q 36.2 43.3 34.3 35.1" stroke-width="13.0"/>
  </g>
</svg>
