<svg xmlns="http://www.w3.org/2000/svg" viewBox="0 0 120 140" role="img" aria-label="padmakośa hasta">
  <mask id="crease-padmakosha" maskUnits="userSpaceOnUse" x="0" y="0" width="120" height="140">
    <rect width="120" height="140" fill="#fff"/>
    <g stroke="#000" stroke-width="3.4" fill="none" stroke-linecap="round">
      <path d="M 52.3 80.9 L 45.7 50.6"/>
      <path d="M 64.7 80.5 L 66.1 49.0"/>
      <path d="M 75.4 83.1 L 84.2 59.1"/>
    </g>
  </mask>
  <g mask="url(#crease-padmakosha)" fill="currentColor" stroke="currentColor" stroke-linecap="round" stroke-linejoin="round">
    <path d="M 33 86 Q 33 72 47 71 L 76 71 Q 88 72 88 85 L 89 107 Q 90 123 74 128 Q 55 132 42 124 Q 33 117 33 104 Z" stroke="none"/>
    <path d="M 37.2 113.9 Q 32.1 71.8 37.0 62.9" stroke-width="15.0"/>
    <path d="M 78.2 88.7 Q 94.5 59.2 89.3 61.4" stroke-width="13.0"/>
    <path d="M 70.1 84.8 Q 77.9 44.6 75.0 47.1" stroke-width="13.0"/>
    <path d="M 59.0 83.9 Q 54.5 40.3 54.8 42.9" stroke-width="13.0"/>
    <path d="M 47.2 85.5 Q 34.4 47.3 38.4 49.1" stroke-width="13.0"/>
  </g>
</svg>
