<svg xmlns="http://www.w3.org/2000/svg" viewBox="0 0 120 140" role="img" aria-label="śukatuṇḍa hasta">
  <mask id="crease-shukatunda" maskUnits="userSpaceOnUse" x="0" y="0" width="120" height="140">
    <rect width="120" height="140" fill="#fff"/>
    <g stroke="#000" stroke-width="3.4" fill="none" stroke-linecap="round">
      <path d="M 51.8 80.9 L 47.7 50.3"/>
      <path d="M 64.8 80.5 L 65.5 60.3"/>
      <path d="M 76.0 83.3 L 80.2 67.0"/>
    </g>
  </mask>
  <g mask="url(#crease-shukatunda)" fill="currentColor" stroke="currentColor" stroke-linecap="round" stroke-linejoin="round">
    <path d="M 33 86 Q 33 72 47 71 L 76 71 Q 88 72 88 85 L 89 107 Q 90 123 74 128 Q 55 132 42 124 Q 33 117 33 104 Z" stroke="none"/>
    <path d="M 26.1 103.0 Q 66.4 107.2 74.0 108.0" stroke-width="15.0"/>
    <path d="M 79.4 89.3 Q 92.5 55.4 94.8 49.2" stroke-width="13.0"/>
    <path d="M 70.6 84.9 Q 74.3 58.0 72.5 59.2" stroke-width="13.0"/>
    <path d="M 58.6 84.0 Q 55.6 36.5 55.0 27.1" stroke-width="13.0"/>
    <path d="M 46.0 85.8 Q 37.9 46.4 42.7 48.0" stroke-width="13.0"/>
  </g>
</svg>
