<svg xmlns="http://www.w3.org/2000/svg" viewBox="0 0 120 140" role="img" aria-label="triśūla hasta">
  <mask id="crease-trishula" maskUnits="userSpaceOnUse" x="0" y="0" width="120" height="140">
    <rect width="120" height="140" fill="#fff"/>
    <g stroke="#000" stroke-width="3.4" fill="none" stroke-linecap="round">
      <path d="M 52.2 80.9 L 45.4 47.9"/>
      <path d="M 64.7 80.5 L 66.2 46.1"/>
      <path d="M 77.8 84.7 Q 80.2 80.3 72.6 89.5"/>
    </g>
  </mask>
  <g mask="url(#crease-trishula)" fill="currentColor" stroke="currentColor" stroke-linecap="round" stroke-linejoin="round">
    <path d="M 33 86 Q 33 72 47 71 L 76 71 Q 88 72 88 85 L 89 107 Q 90 123 74 128 Q 55 132 42 124 Q 33 117 33 104 Z" stroke="none"/>
    <path d="M 26.1 105.6 Q 46.3 102.4 48.9 102.0" stroke-width="15.0"/>
    <path d="M 78.3 88.8 Q 85.0 76.3 85.5 75.3" stroke-width="13.0"/>
    <path d="M 70.2 84.8 Q 78.3 41.2 79.9 32.7" stroke-width="13.0"/>
    <path d="M 59.0 84.0 Q 54.3 36.6 53.3 27.2" stroke-width="13.0"/>
    <path d="M 47.0 85.5 Q 33.8 44.0 31.3 36.0" stroke-width="13.0"/>
  </g>
</svg>
